<svg width="25" height="25" viewBox="0 0 25 25" fill="none" xmlns="http://www.w3.org/2000/svg">
<path d="M3.125 6.25H5.20833H21.875" stroke="#3e3d3d" stroke-width="2" stroke-linecap="round" stroke-linejoin="round"/>
<path d="M8.33337 6.24999V4.16666C8.33337 3.61413 8.55287 3.08422 8.94357 2.69352C9.33427 2.30282 9.86417 2.08333 10.4167 2.08333H14.5834C15.1359 2.08333 15.6658 2.30282 16.0565 2.69352C16.4472 3.08422 16.6667 3.61413 16.6667 4.16666V6.24999M19.7917 6.24999V20.8333C19.7917 21.3859 19.5722 21.9158 19.1815 22.3065C18.7908 22.6972 18.2609 22.9167 17.7084 22.9167H7.29171C6.73917 22.9167 6.20927 22.6972 5.81857 22.3065C5.42787 21.9158 5.20837 21.3859 5.20837 20.8333V6.24999H19.7917Z" stroke="#3e3d3d" stroke-width="2" stroke-linecap="round" stroke-linejoin="round"/>
<path d="M10.4166 11.4583V17.7083" stroke="#3e3d3d" stroke-width="2" stroke-linecap="round" stroke-linejoin="round"/>
<path d="M14.5834 11.4583V17.7083" stroke="#3e3d3d" stroke-width="2" stroke-linecap="round" stroke-linejoin="round"/>
</svg>
